<svg width="227" height="38" viewBox="0 0 227 38" fill="none" xmlns="http://www.w3.org/2000/svg">
<path fill-rule="evenodd" clip-rule="evenodd" d="M24.5005 4C17.9666 4 13.884 7.22243 12.2498 13.6673C14.7001 10.4449 17.5585 9.23669 20.825 10.0418C22.6887 10.5011 24.0214 11.835 25.4952 13.3119C27.8975 15.7168 30.6782 18.5 36.7502 18.5C43.2832 18.5 47.3668 15.2776 49 8.83365C46.5506 12.0561 43.6922 13.2643 40.4257 12.4582C38.5611 11.9989 37.2284 10.665 35.7545 9.18905C33.3522 6.78223 30.5726 4 24.5005 4ZM12.2498 18.5C5.71681 18.5 1.63324 21.7224 0 28.1673C2.45034 24.9449 5.30874 23.7367 8.57426 24.5418C10.4389 25.0011 11.7716 26.335 13.2454 27.8119C15.6478 30.2168 18.4274 33 24.5005 33C31.0334 33 35.117 29.7785 36.7502 23.3337C34.2999 26.5561 31.4415 27.7643 28.175 26.9591C26.3113 26.4989 24.9786 25.165 23.5048 23.6891C21.1025 21.2841 18.3218 18.5 12.2498 18.5V18.5Z" fill="#38BDF8"/>
<path d="M69.2031 7.25V30H64.5312V7.25H69.2031ZM76.2031 7.25V10.9219H57.6406V7.25H76.2031ZM85.3438 26.1875V18.6562C85.3438 18.1146 85.2552 17.651 85.0781 17.2656C84.901 16.8698 84.625 16.5625 84.25 16.3438C83.8854 16.125 83.4115 16.0156 82.8281 16.0156C82.3281 16.0156 81.8958 16.1042 81.5312 16.2812C81.1667 16.4479 80.8854 16.6927 80.6875 17.0156C80.4896 17.3281 80.3906 17.6979 80.3906 18.125H75.8906C75.8906 17.4062 76.0573 16.724 76.3906 16.0781C76.724 15.4323 77.2083 14.8646 77.8438 14.375C78.4792 13.875 79.2344 13.4844 80.1094 13.2031C80.9948 12.9219 81.9844 12.7812 83.0781 12.7812C84.3906 12.7812 85.5573 13 86.5781 13.4375C87.599 13.875 88.401 14.5312 88.9844 15.4062C89.5781 16.2812 89.875 17.375 89.875 18.6875V25.9219C89.875 26.849 89.9323 27.6094 90.0469 28.2031C90.1615 28.7865 90.3281 29.2969 90.5469 29.7344V30H86C85.7812 29.5417 85.6146 28.9688 85.5 28.2812C85.3958 27.5833 85.3438 26.8854 85.3438 26.1875ZM85.9375 19.7031L85.9688 22.25H83.4531C82.8594 22.25 82.3438 22.3177 81.9062 22.4531C81.4688 22.5885 81.1094 22.7812 80.8281 23.0312C80.5469 23.2708 80.3385 23.5521 80.2031 23.875C80.0781 24.1979 80.0156 24.5521 80.0156 24.9375C80.0156 25.3229 80.1042 25.6719 80.2812 25.9844C80.4583 26.2865 80.7135 26.526 81.0469 26.7031C81.3802 26.8698 81.7708 26.9531 82.2188 26.9531C82.8958 26.9531 83.4844 26.8177 83.9844 26.5469C84.4844 26.276 84.8698 25.9427 85.1406 25.5469C85.4219 25.151 85.5677 24.776 85.5781 24.4219L86.7656 26.3281C86.599 26.7552 86.3698 27.1979 86.0781 27.6562C85.7969 28.1146 85.4375 28.5469 85 28.9531C84.5625 29.349 84.0365 29.6771 83.4219 29.9375C82.8073 30.1875 82.0781 30.3125 81.2344 30.3125C80.1615 30.3125 79.1875 30.099 78.3125 29.6719C77.4479 29.2344 76.7604 28.6354 76.25 27.875C75.75 27.1042 75.5 26.2292 75.5 25.25C75.5 24.3646 75.6667 23.5781 76 22.8906C76.3333 22.2031 76.8229 21.625 77.4688 21.1562C78.125 20.6771 78.9427 20.3177 79.9219 20.0781C80.901 19.8281 82.0365 19.7031 83.3281 19.7031H85.9375ZM98.0938 13.0938V30H93.5781V13.0938H98.0938ZM93.2969 8.6875C93.2969 8.03125 93.526 7.48958 93.9844 7.0625C94.4427 6.63542 95.0573 6.42188 95.8281 6.42188C96.5885 6.42188 97.1979 6.63542 97.6562 7.0625C98.125 7.48958 98.3594 8.03125 98.3594 8.6875C98.3594 9.34375 98.125 9.88542 97.6562 10.3125C97.1979 10.7396 96.5885 10.9531 95.8281 10.9531C95.0573 10.9531 94.4427 10.7396 93.9844 10.3125C93.526 9.88542 93.2969 9.34375 93.2969 8.6875ZM106.562 6V30H102.047V6H106.562ZM115.109 25.625L118.625 13.0938H121.484L120.562 18.0156L117.047 30H114.656L115.109 25.625ZM113.328 13.0938L115.844 25.6094L116.078 30H113.266L108.984 13.0938H113.328ZM124.703 25.4062L127.156 13.0938H131.516L127.234 30H124.438L124.703 25.4062ZM121.875 13.0938L125.375 25.5312L125.859 30H123.453L119.938 18.0312L119.047 13.0938H121.875ZM138.531 13.0938V30H134.016V13.0938H138.531ZM133.734 8.6875C133.734 8.03125 133.964 7.48958 134.422 7.0625C134.88 6.63542 135.495 6.42188 136.266 6.42188C137.026 6.42188 137.635 6.63542 138.094 7.0625C138.562 7.48958 138.797 8.03125 138.797 8.6875C138.797 9.34375 138.562 9.88542 138.094 10.3125C137.635 10.7396 137.026 10.9531 136.266 10.9531C135.495 10.9531 134.88 10.7396 134.422 10.3125C133.964 9.88542 133.734 9.34375 133.734 8.6875ZM146.656 16.7031V30H142.156V13.0938H146.375L146.656 16.7031ZM146 20.9531H144.781C144.781 19.7031 144.943 18.5781 145.266 17.5781C145.589 16.5677 146.042 15.7083 146.625 15C147.208 14.2812 147.901 13.7344 148.703 13.3594C149.516 12.974 150.422 12.7812 151.422 12.7812C152.214 12.7812 152.938 12.8958 153.594 13.125C154.25 13.3542 154.812 13.7188 155.281 14.2188C155.76 14.7188 156.125 15.3802 156.375 16.2031C156.635 17.026 156.766 18.0312 156.766 19.2188V30H152.234V19.2031C152.234 18.4531 152.13 17.8698 151.922 17.4531C151.714 17.0365 151.406 16.7448 151 16.5781C150.604 16.401 150.115 16.3125 149.531 16.3125C148.927 16.3125 148.401 16.4323 147.953 16.6719C147.516 16.9115 147.151 17.2448 146.859 17.6719C146.578 18.0885 146.365 18.5781 146.219 19.1406C146.073 19.7031 146 20.3073 146 20.9531ZM170.172 26.3125V6H174.703V30H170.625L170.172 26.3125ZM159.484 21.75V21.4219C159.484 20.1302 159.63 18.9583 159.922 17.9062C160.214 16.8438 160.641 15.9323 161.203 15.1719C161.766 14.4115 162.458 13.8229 163.281 13.4062C164.104 12.9896 165.042 12.7812 166.094 12.7812C167.083 12.7812 167.948 12.9896 168.688 13.4062C169.438 13.8229 170.073 14.4167 170.594 15.1875C171.125 15.9479 171.552 16.849 171.875 17.8906C172.198 18.9219 172.432 20.0521 172.578 21.2812V22C172.432 23.1771 172.198 24.2708 171.875 25.2812C171.552 26.2917 171.125 27.1771 170.594 27.9375C170.073 28.6875 169.438 29.2708 168.688 29.6875C167.938 30.1042 167.062 30.3125 166.062 30.3125C165.01 30.3125 164.073 30.099 163.25 29.6719C162.438 29.2448 161.75 28.6458 161.188 27.875C160.635 27.1042 160.214 26.1979 159.922 25.1562C159.63 24.1146 159.484 22.9792 159.484 21.75ZM163.984 21.4219V21.75C163.984 22.4479 164.036 23.099 164.141 23.7031C164.255 24.3073 164.438 24.8438 164.688 25.3125C164.948 25.7708 165.281 26.1302 165.688 26.3906C166.104 26.6406 166.609 26.7656 167.203 26.7656C167.974 26.7656 168.609 26.5938 169.109 26.25C169.609 25.8958 169.99 25.4115 170.25 24.7969C170.521 24.1823 170.677 23.474 170.719 22.6719V20.625C170.688 19.9688 170.594 19.3802 170.438 18.8594C170.292 18.3281 170.073 17.875 169.781 17.5C169.5 17.125 169.146 16.8333 168.719 16.625C168.302 16.4167 167.807 16.3125 167.234 16.3125C166.651 16.3125 166.151 16.4479 165.734 16.7188C165.318 16.9792 164.979 17.3385 164.719 17.7969C164.469 18.2552 164.281 18.7969 164.156 19.4219C164.042 20.0365 163.984 20.7031 163.984 21.4219ZM185.203 26.7969C185.755 26.7969 186.245 26.6927 186.672 26.4844C187.099 26.2656 187.432 25.9635 187.672 25.5781C187.922 25.1823 188.052 24.7188 188.062 24.1875H192.297C192.286 25.375 191.969 26.4323 191.344 27.3594C190.719 28.276 189.88 29 188.828 29.5312C187.776 30.0521 186.599 30.3125 185.297 30.3125C183.984 30.3125 182.839 30.0938 181.859 29.6562C180.891 29.2188 180.083 28.6146 179.438 27.8438C178.792 27.0625 178.307 26.1562 177.984 25.125C177.661 24.0833 177.5 22.9688 177.5 21.7812V21.3281C177.5 20.1302 177.661 19.0156 177.984 17.9844C178.307 16.9427 178.792 16.0365 179.438 15.2656C180.083 14.4844 180.891 13.875 181.859 13.4375C182.828 13 183.964 12.7812 185.266 12.7812C186.651 12.7812 187.865 13.0469 188.906 13.5781C189.958 14.1094 190.781 14.8698 191.375 15.8594C191.979 16.8385 192.286 18 192.297 19.3438H188.062C188.052 18.7812 187.932 18.2708 187.703 17.8125C187.484 17.3542 187.161 16.9896 186.734 16.7188C186.318 16.4375 185.802 16.2969 185.188 16.2969C184.531 16.2969 183.995 16.4375 183.578 16.7188C183.161 16.9896 182.839 17.3646 182.609 17.8438C182.38 18.3125 182.219 18.849 182.125 19.4531C182.042 20.0469 182 20.6719 182 21.3281V21.7812C182 22.4375 182.042 23.0677 182.125 23.6719C182.208 24.276 182.365 24.8125 182.594 25.2812C182.833 25.75 183.161 26.1198 183.578 26.3906C183.995 26.6615 184.536 26.7969 185.203 26.7969ZM204.047 25.3281C204.047 25.0052 203.953 24.7135 203.766 24.4531C203.578 24.1927 203.229 23.9531 202.719 23.7344C202.219 23.5052 201.495 23.2969 200.547 23.1094C199.693 22.9219 198.896 22.6875 198.156 22.4062C197.427 22.1146 196.792 21.7656 196.25 21.3594C195.719 20.9531 195.302 20.474 195 19.9219C194.698 19.3594 194.547 18.7188 194.547 18C194.547 17.2917 194.698 16.625 195 16C195.312 15.375 195.755 14.8229 196.328 14.3438C196.911 13.8542 197.62 13.474 198.453 13.2031C199.297 12.9219 200.245 12.7812 201.297 12.7812C202.766 12.7812 204.026 13.0156 205.078 13.4844C206.141 13.9531 206.953 14.599 207.516 15.4219C208.089 16.2344 208.375 17.1615 208.375 18.2031H203.875C203.875 17.7656 203.781 17.375 203.594 17.0312C203.417 16.6771 203.135 16.401 202.75 16.2031C202.375 15.9948 201.885 15.8906 201.281 15.8906C200.781 15.8906 200.349 15.9792 199.984 16.1562C199.62 16.3229 199.339 16.5521 199.141 16.8438C198.953 17.125 198.859 17.4375 198.859 17.7812C198.859 18.0417 198.911 18.276 199.016 18.4844C199.13 18.6823 199.312 18.8646 199.562 19.0312C199.812 19.1979 200.135 19.3542 200.531 19.5C200.938 19.6354 201.438 19.7604 202.031 19.875C203.25 20.125 204.339 20.4531 205.297 20.8594C206.255 21.2552 207.016 21.7969 207.578 22.4844C208.141 23.1615 208.422 24.0521 208.422 25.1562C208.422 25.9062 208.255 26.5938 207.922 27.2188C207.589 27.8438 207.109 28.3906 206.484 28.8594C205.859 29.3177 205.109 29.6771 204.234 29.9375C203.37 30.1875 202.396 30.3125 201.312 30.3125C199.74 30.3125 198.406 30.0312 197.312 29.4688C196.229 28.9062 195.406 28.1927 194.844 27.3281C194.292 26.4531 194.016 25.5573 194.016 24.6406H198.281C198.302 25.2552 198.458 25.75 198.75 26.125C199.052 26.5 199.432 26.7708 199.891 26.9375C200.359 27.1042 200.865 27.1875 201.406 27.1875C201.99 27.1875 202.474 27.1094 202.859 26.9531C203.245 26.7865 203.536 26.5677 203.734 26.2969C203.943 26.0156 204.047 25.6927 204.047 25.3281ZM220.484 25.3281C220.484 25.0052 220.391 24.7135 220.203 24.4531C220.016 24.1927 219.667 23.9531 219.156 23.7344C218.656 23.5052 217.932 23.2969 216.984 23.1094C216.13 22.9219 215.333 22.6875 214.594 22.4062C213.865 22.1146 213.229 21.7656 212.688 21.3594C212.156 20.9531 211.74 20.474 211.438 19.9219C211.135 19.3594 210.984 18.7188 210.984 18C210.984 17.2917 211.135 16.625 211.438 16C211.75 15.375 212.193 14.8229 212.766 14.3438C213.349 13.8542 214.057 13.474 214.891 13.2031C215.734 12.9219 216.682 12.7812 217.734 12.7812C219.203 12.7812 220.464 13.0156 221.516 13.4844C222.578 13.9531 223.391 14.599 223.953 15.4219C224.526 16.2344 224.812 17.1615 224.812 18.2031H220.312C220.312 17.7656 220.219 17.375 220.031 17.0312C219.854 16.6771 219.573 16.401 219.188 16.2031C218.812 15.9948 218.323 15.8906 217.719 15.8906C217.219 15.8906 216.786 15.9792 216.422 16.1562C216.057 16.3229 215.776 16.5521 215.578 16.8438C215.391 17.125 215.297 17.4375 215.297 17.7812C215.297 18.0417 215.349 18.276 215.453 18.4844C215.568 18.6823 215.75 18.8646 216 19.0312C216.25 19.1979 216.573 19.3542 216.969 19.5C217.375 19.6354 217.875 19.7604 218.469 19.875C219.688 20.125 220.776 20.4531 221.734 20.8594C222.693 21.2552 223.453 21.7969 224.016 22.4844C224.578 23.1615 224.859 24.0521 224.859 25.1562C224.859 25.9062 224.693 26.5938 224.359 27.2188C224.026 27.8438 223.547 28.3906 222.922 28.8594C222.297 29.3177 221.547 29.6771 220.672 29.9375C219.807 30.1875 218.833 30.3125 217.75 30.3125C216.177 30.3125 214.844 30.0312 213.75 29.4688C212.667 28.9062 211.844 28.1927 211.281 27.3281C210.729 26.4531 210.453 25.5573 210.453 24.6406H214.719C214.74 25.2552 214.896 25.75 215.188 26.125C215.49 26.5 215.87 26.7708 216.328 26.9375C216.797 27.1042 217.302 27.1875 217.844 27.1875C218.427 27.1875 218.911 27.1094 219.297 26.9531C219.682 26.7865 219.974 26.5677 220.172 26.2969C220.38 26.0156 220.484 25.6927 220.484 25.3281Z" fill="black"/>
</svg>
